<?xml version="1.0" encoding="utf-8"?>
<!-- Generator: Adobe Illustrator 16.0.0, SVG Export Plug-In . SVG Version: 6.00 Build 0)  -->
<!DOCTYPE svg PUBLIC "-//W3C//DTD SVG 1.1//EN" "http://www.w3.org/Graphics/SVG/1.1/DTD/svg11.dtd">
<svg version="1.1" id="Layer_1" xmlns="http://www.w3.org/2000/svg" xmlns:xlink="http://www.w3.org/1999/xlink" x="0px" y="0px"
	 width="10px" height="10px" viewBox="0 0 10 10" enable-background="new 0 0 10 10" xml:space="preserve">
<path fill="#8290C4" d="M5.321,0.898C5.043,0.364,4.483,0,3.84,0C3.195,0,2.638,0.364,2.358,0.898H0v1.597h2.393C2.68,2.996,3.221,3.333,3.84,3.333
	c0.62,0,1.159-0.337,1.448-0.838H10V0.898H5.321z M3.84,2.5c-0.461,0-0.834-0.374-0.834-0.834c0-0.46,0.373-0.833,0.834-0.833
	c0.462,0,0.836,0.373,0.836,0.833C4.676,2.126,4.302,2.5,3.84,2.5z"/>
<path fill="#8290C4" d="M9.218,4.19c-0.284-0.511-0.831-0.857-1.46-0.857c-0.628,0-1.174,0.347-1.46,0.857H0v1.598h6.288
	c0.282,0.523,0.835,0.88,1.47,0.88c0.639,0,1.189-0.357,1.472-0.88H10V4.19H9.218z M7.758,5.833c-0.462,0-0.834-0.375-0.834-0.836
	c0-0.459,0.372-0.831,0.834-0.831s0.836,0.372,0.836,0.831C8.594,5.458,8.22,5.833,7.758,5.833z"/>
<path fill="#8290C4" d="M4.116,7.482C3.826,6.996,3.292,6.668,2.68,6.668c-0.611,0-1.144,0.328-1.435,0.814H0v1.699h1.245
	C1.537,9.67,2.069,10,2.68,10c0.612,0,1.146-0.33,1.436-0.818H10V7.482H4.116z M2.68,9.166c-0.461,0-0.834-0.373-0.834-0.832
	C1.846,7.873,2.219,7.5,2.68,7.5c0.462,0,0.834,0.373,0.834,0.834C3.515,8.793,3.143,9.166,2.68,9.166z"/>
</svg>
