<?xml version="1.0" encoding="utf-8"?>
<!-- Generator: Adobe Illustrator 16.0.0, SVG Export Plug-In . SVG Version: 6.00 Build 0)  -->
<!DOCTYPE svg PUBLIC "-//W3C//DTD SVG 1.1//EN" "http://www.w3.org/Graphics/SVG/1.1/DTD/svg11.dtd">
<svg version="1.1" id="Layer_1" xmlns="http://www.w3.org/2000/svg" xmlns:xlink="http://www.w3.org/1999/xlink" x="0px" y="0px"
	 width="9px" height="9px" viewBox="0 0 9 9" enable-background="new 0 0 9 9" xml:space="preserve">
<g fill="#8290C4" >
	<path d="M4.5,0C2.015,0,0,2.015,0,4.501C0,6.985,2.015,9,4.5,9S9,6.985,9,4.501C9,2.015,6.985,0,4.5,0z M5.285,7.161
		c0,0.403-0.349,0.73-0.778,0.73c-0.431,0-0.78-0.327-0.78-0.73V3.811c0-0.403,0.349-0.73,0.78-0.73c0.43,0,0.778,0.327,0.778,0.73
		V7.161z M4.5,2.78c-0.463,0-0.837-0.377-0.837-0.839c0-0.463,0.375-0.838,0.837-0.838s0.838,0.375,0.838,0.838
		C5.338,2.403,4.963,2.78,4.5,2.78z"/>
</g>
</svg>
