<?xml version="1.0" encoding="utf-8"?>
<!-- Generator: Adobe Illustrator 16.0.0, SVG Export Plug-In . SVG Version: 6.00 Build 0)  -->
<!DOCTYPE svg PUBLIC "-//W3C//DTD SVG 1.1//EN" "http://www.w3.org/Graphics/SVG/1.1/DTD/svg11.dtd">
<svg version="1.1" id="Layer_1" xmlns="http://www.w3.org/2000/svg" xmlns:xlink="http://www.w3.org/1999/xlink" x="0px" y="0px" width="33px" height="33px" viewBox="0 0 33 33" enable-background="new 0 0 33 33" xml:space="preserve">
<path fill="#dcd123" d="M16.5,0C7.389,0,0,7.387,0,16.5c0,9.112,7.389,16.5,16.499,16.5c9.113,0,16.501-7.388,16.501-16.5C33.001,7.387,25.612,0,16.5,0z M17.997,25.933c-0.421,0.42-0.903,0.631-1.449,0.631c-0.609,0-1.124-0.211-1.544-0.631s-0.63-0.913-0.63-1.479c0-0.588,0.21-1.092,0.63-1.512c0.42-0.421,0.934-0.631,1.544-0.631c0.546,0,1.028,0.211,1.449,0.631c0.419,0.42,0.63,0.924,0.63,1.512C18.626,25.02,18.416,25.513,17.997,25.933z M18.626,19.192c0,0.609-0.21,1.118-0.629,1.527c-0.422,0.409-0.903,0.614-1.45,0.614c-0.609,0-1.124-0.205-1.543-0.614c-0.42-0.409-0.63-0.918-0.63-1.527V8.577c0-0.608,0.21-1.118,0.63-1.528c0.42-0.409,0.934-0.613,1.543-0.613c0.547,0,1.028,0.205,1.45,0.613c0.419,0.41,0.629,0.919,0.629,1.528V19.192z"/>
</svg>
