<?xml version="1.0" encoding="utf-8"?>
<!DOCTYPE svg PUBLIC "-//W3C//DTD SVG 1.1//EN" "http://www.w3.org/Graphics/SVG/1.1/DTD/svg11.dtd">
<svg version="1.1" id="Layer_1" xmlns="http://www.w3.org/2000/svg" xmlns:xlink="http://www.w3.org/1999/xlink" x="0px" y="0px"
	 width="20px" height="20px" viewBox="0 0 20 20" enable-background="new 0 0 20 20" xml:space="preserve">
<g>
	<path fill="#ffffff" d="M18.956,15.152L20,12.599l-1.179-1.054c-0.449-0.403-0.708-0.977-0.712-1.58c0,0,0,0,0,0
		c-0.003-0.605,0.251-1.183,0.698-1.59l1.168-1.064l-1.066-2.543l-1.578,0.088c-0.604,0.033-1.194-0.19-1.623-0.616
		c0,0-0.001,0-0.001,0c-0.428-0.424-0.656-1.011-0.629-1.615l0.075-1.58L12.599,0l-1.054,1.179c-0.402,0.449-0.977,0.708-1.58,0.711
		c0,0,0,0-0.001,0C9.36,1.893,8.782,1.639,8.375,1.192L7.31,0.024L4.767,1.091l0.089,1.578c0.032,0.604-0.191,1.194-0.617,1.624
		c0,0,0,0,0,0C3.814,4.721,3.227,4.949,2.623,4.921l-1.58-0.074L0,7.4l1.179,1.055c0.449,0.402,0.708,0.977,0.711,1.58v0.001
		c0.002,0.604-0.251,1.182-0.698,1.589l-1.169,1.064l1.067,2.543l1.577-0.087c0.604-0.033,1.195,0.19,1.624,0.616c0,0,0,0,0,0.001
		c0.429,0.424,0.657,1.012,0.629,1.614l-0.074,1.579L7.4,20l1.048-1.171c0.406-0.454,0.985-0.716,1.594-0.719c0,0,0.001,0,0.001,0
		c0.599-0.004,1.17,0.247,1.575,0.69l1.071,1.176l2.543-1.067l-0.087-1.58c-0.033-0.603,0.19-1.192,0.615-1.62
		c0-0.001,0.001-0.001,0.001-0.001c0.424-0.429,1.013-0.657,1.615-0.629L18.956,15.152z M8.579,13.477
		c-1.92-0.786-2.84-2.979-2.055-4.898c0.785-1.92,2.978-2.84,4.898-2.054c1.92,0.784,2.839,2.978,2.054,4.896
		C12.69,13.341,10.498,14.261,8.579,13.477z"/>
</g>
</svg>
