<?xml version="1.0" encoding="utf-8"?>
<!-- Generator: Adobe Illustrator 16.0.0, SVG Export Plug-In . SVG Version: 6.00 Build 0)  -->
<!DOCTYPE svg PUBLIC "-//W3C//DTD SVG 1.1//EN" "http://www.w3.org/Graphics/SVG/1.1/DTD/svg11.dtd">
<svg version="1.1" id="Layer_1" xmlns="http://www.w3.org/2000/svg" xmlns:xlink="http://www.w3.org/1999/xlink" x="0px" y="0px"
	 width="10px" height="10px" viewBox="0 0 10 10" enable-background="new 0 0 10 10" xml:space="preserve">
<g id="Your_Icon">
	<g>
		<path fill="#8290c4" d="M0,3.565c0,0.952,0.371,1.848,1.043,2.521C1.717,6.76,2.613,7.131,3.565,7.131
			c0.563,0,1.104-0.133,1.595-0.378l2.918,2.918C8.298,9.89,8.586,10,8.874,10C9.163,10,9.45,9.89,9.67,9.671
			c0.44-0.44,0.44-1.153,0-1.593L6.753,5.16c0.245-0.49,0.378-1.032,0.378-1.594c0-0.953-0.371-1.849-1.044-2.522
			C5.413,0.37,4.518,0,3.565,0C2.613,0,1.718,0.371,1.044,1.044C0.371,1.717,0,2.612,0,3.565z M2.105,5.025
			c-0.39-0.391-0.604-0.908-0.604-1.459c0-0.552,0.214-1.07,0.604-1.46c0.39-0.39,0.909-0.604,1.46-0.604
			c0.552,0,1.069,0.214,1.46,0.604c0.39,0.39,0.604,0.908,0.604,1.46c0,0.551-0.215,1.069-0.604,1.459
			c-0.391,0.39-0.91,0.605-1.46,0.605C3.014,5.63,2.496,5.415,2.105,5.025z"/>
	</g>
</g>
</svg>
